<svg id="Layer_1" data-name="Layer 1" xmlns="http://www.w3.org/2000/svg" viewBox="0 0 138.32 42"><defs><style>.cls-2{fill:#ed1c24}.cls-3{fill:#009edb}</style></defs><path d="M30.18 13.68l-4 4-.2.2-1.27 1.27-.94.95-1.27 1.27-.2.19-.55.56-.2.19-1.87 1.87-.2.19a8.4 8.4 0 01-1.84 1.39 7.83 7.83 0 01-1 .47 8.07 8.07 0 01-2.42.53 8.47 8.47 0 01-1.51 0 8.17 8.17 0 01-3.12-1 5.52 5.52 0 01-1.2-.84l-.23-.23-7.29-7.36-.15-.15a2.61 2.61 0 01-.34-.46 2.74 2.74 0 01-.38-1.4 1.69 1.69 0 010-.23v-.48a2.8 2.8 0 01.5-1 2.09 2.09 0 01.2-.22l.13-.13 7.85-7.75 4.7-4.69a2.79 2.79 0 013.81-.13z" fill="#005baa"/><path class="cls-2" d="M16.05 31.12a4.36 4.36 0 01-1.83-.41l-1.49-1.48-.37-.36-.06-.07-.69-.69-3.47-3.51.23.23a5.52 5.52 0 001.21.85 8.17 8.17 0 003.12 1 8.47 8.47 0 001.51 0 8.07 8.07 0 002.42-.53 7.83 7.83 0 001-.47 8.4 8.4 0 001.84-1.39l.2-.19 1.87-1.87.2-.19.55-.56.2-.19 1.27-1.27.94-.95 1.3-1.2.2-.2 8.05-8L37.55 6l.18-.17a2.6 2.6 0 013.67 0l1.82 1.82h.06a3 3 0 00-2.22.85l-6.15 6-.06.07-10.68 10.64-3.95 3.87-.24.25a7 7 0 01-1.83 1.28 5 5 0 01-1.18.4 4.45 4.45 0 01-.71.09z"/><path class="cls-2" d="M53.08 21.17l-.2.2-8.71 8.84L35 39.5a7.54 7.54 0 01-.92.79l-.13.09a8.43 8.43 0 01-10.71-.75l-.24-.14-1.57-1.57L17 33.49 15.52 32l-.2-.21a4.37 4.37 0 00.72.06h.21a4.83 4.83 0 00.84-.11 5.39 5.39 0 001.35-.46 7.86 7.86 0 002-1.42l.27-.29 3.4-3.34 11.69-11.5.06-.08 5.74-5.56a2.27 2.27 0 012.83-.25l1.34 1.35 7.3 7.31a1.71 1.71 0 01.18.2 2.59 2.59 0 01-.17 3.47z"/><path class="cls-3" d="M24.86 11.49a.56.56 0 01-.76 0A8.87 8.87 0 1011.51 24l2.7 2.72a.21.21 0 010 .06 8 8 0 01-1.47 0l-2-2a9.93 9.93 0 0114.1-14 .53.53 0 01.02.71zm4.14 3.4l-.75.74-1.31-1.32a.53.53 0 010-.75.53.53 0 01.75 0z"/><path class="cls-3" d="M17.68 25.74a7.4 7.4 0 01-1 .46L13 22.52a6.8 6.8 0 01-.78-8.64.54.54 0 01.74-.14.53.53 0 01.13.74 5.74 5.74 0 00.66 7.29zm9.08-8.64l-.55.55-.18.18-4.13-4.17a5.74 5.74 0 00-5.9-1.39.53.53 0 11-.33-1 6.77 6.77 0 016.93 1.68z"/><path class="cls-3" d="M24.55 19.32l-.75.75-4.15-4.18A2.6 2.6 0 0016 19.56l2.67 2.69a.53.53 0 01-.75.75l-2.72-2.69a3.67 3.67 0 015.21-5.16z"/><path class="cls-3" d="M22.33 21.53l-.55.56-.18.17-4.17-4.16a.53.53 0 01.75-.75z"/><path d="M126.68 21.3l-6.18-8.86-.62-.57H126l4.13 6.69.33-.27 2.49-3.71a1.94 1.94 0 00-.34-2.71h5.75l-6.65 9.42v6.84l1.17 1.4h-7.18l1-1.38c0-2.27-.08-4.58 0-6.85zm-16.77-9.43a2.54 2.54 0 01.7 1.51 2.08 2.08 0 01-.13 1l-4.59 13.32a5 5 0 01-1.31 1.74h5a2 2 0 01-.7-1.19 1.88 1.88 0 010-1l1-3.16h5.83l.91 2.44a2.8 2.8 0 01.17.76 2.3 2.3 0 01-.93 2.19h7.85a7.2 7.2 0 01-1.87-2.28l-5.74-15.38zm5 10h-4.17l2-5.76 2.15 5.76zM94 11.88h8.75a4.8 4.8 0 014.79 4.79v.59a4.8 4.8 0 01-4.77 4.74l-2.19.07a4.48 4.48 0 002.27-4.69c-.17-1.48-.93-2.9-2.2-2.93h-.8v13.11a1 1 0 00.18.59 9 9 0 00.8 1.07l.23.28h-6.8l.29-.39a4.33 4.33 0 00.53-.91 1.38 1.38 0 00.13-.6V13.49c-.03-.74-.76-1.16-1.21-1.61z" fill-rule="evenodd" fill="#005baa"/><path d="M57.15 11.79h5.49L67.25 25l3.91-10.94a1.24 1.24 0 00-.16-.93c-.21-.45-.44-.88-.66-1.32h4.1c-.24.89-.6 1.87-.91 2.77L68.23 30a8.68 8.68 0 01-4.3-2 7.45 7.45 0 01-1.73-3.11L57.77 13.1a10.45 10.45 0 00-.62-1.31zM79.07 18v9.44c0 .38.09.45.33.76l1.08 1.41h-5.17l.87-1.33a1.4 1.4 0 00.32-.92V14.15l-1.45-2.36h5.36L89.08 23v-8.9a1.43 1.43 0 00-.31-.93c-.29-.45-.6-.88-.89-1.32H93l-1 1.37c-.24.3-.33.37-.33.76V30a7.31 7.31 0 01-5.39-2.81z" fill-rule="evenodd" fill="#ed1c24"/><path class="cls-3" d="M62.64 35.56c0 .7.3 1.07 1.07 1.07a2.5 2.5 0 00.88-.16c.14-.06.18 0 .18.13v.08c0 .12 0 .17-.18.24a2.19 2.19 0 01-.87.15c-1.06 0-1.56-.47-1.56-1.51v-1A1.38 1.38 0 0163.71 33a2.42 2.42 0 01.85.16c.14.05.17.11.17.23v.08c0 .15-.06.19-.19.14a2.11 2.11 0 00-.85-.17c-.74 0-1 .36-1 1.14z"/><path class="cls-3" d="M63.72 37.08c-1.07 0-1.57-.49-1.57-1.52v-1A1.38 1.38 0 0163.71 33a2.42 2.42 0 01.85.16c.15.06.18.12.18.24v.23c0 .02-.08 0-.15 0a2.3 2.3 0 00-.85-.16c-.72 0-1 .35-1 1.13v1c0 .73.32 1.06 1.06 1.06a2.28 2.28 0 00.87-.16h.15c.03 0 0 .07 0 .15v.08c0 .13 0 .18-.18.24a2 2 0 01-.92.11zm0-4.07a1.37 1.37 0 00-1.55 1.57v1c0 1 .5 1.5 1.56 1.5a1.92 1.92 0 00.86-.15c.15-.06.18-.11.18-.23v-.24c0-.02-.06 0-.13 0a2.33 2.33 0 01-.88.16c-.74 0-1.08-.33-1.08-1.07v-1c0-.79.33-1.14 1.06-1.14a2.2 2.2 0 01.86.16h.13a.17.17 0 000-.14v-.08c0-.11 0-.17-.18-.23a2.32 2.32 0 00-.84-.12zm1.7-.01c0-.17 0-.2.19-.2h.07c.16 0 .19 0 .19.2v1.41a1.08 1.08 0 011-.41c.71 0 1.13.3 1.13 1v1.8c0 .16 0 .19-.19.19h-.08c-.16 0-.19 0-.19-.19v-1.73c0-.48-.21-.69-.78-.69s-.84.23-.84.79v1.65c0 .16 0 .19-.19.19h-.07c-.15 0-.19 0-.19-.19z"/><path class="cls-3" d="M67.76 37h-.08c-.16 0-.19 0-.19-.2v-1.73c0-.49-.23-.68-.78-.68s-.83.23-.83.78v1.65c0 .16 0 .2-.2.2h-.07c-.16 0-.2 0-.2-.2V33c0-.18 0-.21.2-.21h.07c.16 0 .2 0 .2.21v1.39a1.08 1.08 0 011-.4c.75 0 1.13.36 1.13 1.08v1.8c-.01.13-.08.13-.25.13zm-1.05-2.65c.56 0 .79.21.79.7v1.75c0 .16 0 .18.18.18h.08c.16 0 .19 0 .19-.18V35c0-.71-.38-1.06-1.12-1.06a1 1 0 00-1 .41V33c0-.16 0-.19-.18-.19h-.07c-.15 0-.19 0-.19.19v3.87c0 .16 0 .18.19.18h.07c.16 0 .18 0 .18-.18v-1.7c.03-.56.29-.8.88-.8zm1.89 1.44v-.56c0-.85.45-1.28 1.34-1.28s1.33.44 1.33 1.28v.56c0 .86-.44 1.28-1.33 1.28s-1.34-.44-1.34-1.28zm2.21-.56c0-.59-.21-.85-.87-.85s-.88.26-.88.85v.56c0 .59.22.85.88.85s.87-.26.87-.85z"/><path class="cls-3" d="M69.94 37.08c-.92 0-1.34-.41-1.34-1.29v-.56a1.31 1.31 0 01.33-1 1.44 1.44 0 011-.32c.91 0 1.33.41 1.33 1.29v.56a1.16 1.16 0 01-1.32 1.32zm0-3.12a1.41 1.41 0 00-1 .31 1.27 1.27 0 00-.33 1v.56c0 .87.42 1.27 1.33 1.27a1.38 1.38 0 001-.31 1.27 1.27 0 00.33-1v-.56c-.01-.87-.43-1.23-1.33-1.23zm0 2.69c-.64 0-.89-.24-.89-.86v-.56c0-.62.24-.86.89-.86s.88.24.88.86v.56c0 .63-.24.86-.88.86zm0-2.26c-.64 0-.87.22-.87.84v.56c0 .61.24.84.87.84s.87-.22.87-.84v-.56c0-.62-.24-.84-.87-.84zm3.54.82c0-.8.43-1.26 1.36-1.26a1.48 1.48 0 01.53.08c.15 0 .19.09.19.23v.06c0 .15 0 .2-.19.15a1.42 1.42 0 00-.52-.09c-.68 0-.91.27-.91.84v.59c0 .61.27.83 1 .83a1.5 1.5 0 00.54-.08c.14-.05.18 0 .18.15v.06c0 .13 0 .18-.19.22a1.71 1.71 0 01-.57.08c-.93 0-1.37-.4-1.37-1.26z"/><path class="cls-3" d="M74.85 37.08a1.49 1.49 0 01-1-.31 1.26 1.26 0 01-.34-1v-.6a1.23 1.23 0 01.34-.93 1.39 1.39 0 011-.34 1.69 1.69 0 01.53.08c.16 0 .19.1.19.24v.22a.16.16 0 01-.15 0 1.72 1.72 0 00-.52-.08c-.65 0-.91.24-.91.83v.59c0 .6.26.82 1 .82a1.46 1.46 0 00.54-.08h.14c.03 0 .05.07.05.16v.06c0 .14 0 .19-.2.23a1.91 1.91 0 01-.67.11zm0-3.12c-.89 0-1.35.43-1.35 1.25v.6c0 .86.43 1.25 1.36 1.25a2 2 0 00.57-.07c.15 0 .19-.09.19-.22v-.21c0-.02-.07 0-.13 0a1.82 1.82 0 01-.55.08c-.69 0-1-.24-1-.84v-.59c0-.6.27-.85.92-.85a1.46 1.46 0 01.52.09h.14c.03 0 0-.07 0-.15v-.06c0-.13 0-.18-.18-.23a1.74 1.74 0 00-.5-.01zm1.65 1.97c0 .48.2.71.81.71s.81-.22.81-.71V34.2c0-.15 0-.19.2-.19h.06c.17 0 .2 0 .2.19v1.73c0 .74-.37 1.14-1.27 1.14S76 36.69 76 35.93V34.2c0-.15 0-.19.2-.19h.06c.17 0 .2 0 .2.19z"/><path class="cls-3" d="M77.31 37.08c-.84 0-1.27-.39-1.27-1.15V34.2c0-.15 0-.2.19-.2h.07c.17 0 .2 0 .2.2v1.73c0 .51.23.7.81.7s.8-.19.8-.7V34.2c0-.15 0-.2.21-.2h.06c.18 0 .2 0 .2.2v1.73a1.1 1.1 0 01-.29.85 1.39 1.39 0 01-.98.3zM76.23 34c-.14 0-.18 0-.18.18v1.73a1.07 1.07 0 00.31.85 1.38 1.38 0 001 .28 1.36 1.36 0 001-.29 1.07 1.07 0 00.29-.84V34.2c0-.14 0-.18-.19-.18h-.06c-.15 0-.19 0-.19.18v1.73c0 .52-.23.72-.82.72s-.82-.2-.82-.72V34.2c0-.14 0-.18-.19-.18zm2.96 1.79v-.56c0-.85.44-1.28 1.34-1.28s1.32.44 1.32 1.28v.56c0 .86-.44 1.28-1.32 1.28s-1.34-.44-1.34-1.28zm2.21-.56c0-.59-.21-.85-.87-.85s-.89.26-.89.85v.56c0 .59.23.85.89.85s.87-.26.87-.85zm-1.3-2.08c.14-.22.23-.3.43-.3s.28.06.43.3l.23.36c.07.11 0 .14-.08.14a.23.23 0 01-.25-.14l-.14-.24c-.09-.17-.19-.17-.29 0l-.13.24a.24.24 0 01-.25.14h-.06c-.12 0-.14 0-.07-.14zm.22 4.46a.3.3 0 110 .43.3.3 0 010-.43z"/><path class="cls-3" d="M80.53 38.13a.31.31 0 01-.3-.3.29.29 0 01.09-.22.27.27 0 01.21-.09.31.31 0 01.31.31.27.27 0 01-.09.21.31.31 0 01-.22.09zm0-.6a.29.29 0 00-.21.09.3.3 0 00-.08.21.32.32 0 00.08.21.31.31 0 00.42 0 .29.29 0 00.09-.21.31.31 0 00-.3-.3zm0-.45c-.92 0-1.35-.41-1.35-1.29v-.56a1.31 1.31 0 01.34-1 1.42 1.42 0 011-.32c.91 0 1.33.41 1.33 1.29v.56a1.16 1.16 0 01-1.32 1.32zm0-3.12a1.39 1.39 0 00-1 .31 1.27 1.27 0 00-.33 1v.56c0 .87.42 1.27 1.33 1.27a1.4 1.4 0 001-.31 1.27 1.27 0 00.33-1v-.56c-.01-.87-.43-1.23-1.33-1.23zm0 2.69c-.64 0-.89-.24-.89-.86v-.56c0-.62.24-.86.89-.86s.87.24.87.86v.56c0 .63-.23.86-.87.86zm0-2.26c-.64 0-.88.22-.88.84v.56c0 .61.25.84.88.84s.86-.22.86-.84v-.56c0-.62-.23-.84-.86-.84zm.58-.73a.23.23 0 01-.25-.15l-.14-.23c0-.09-.1-.13-.14-.13s-.1 0-.14.13l-.14.23a.23.23 0 01-.25.15h-.17c-.01 0 0-.06 0-.11l.23-.36c.15-.22.23-.3.44-.3s.28.06.43.3l.23.36c0 .05.06.09 0 .11s-.03 0-.1 0zm-.58-.52s.1 0 .15.13l.14.24a.22.22 0 00.24.14h.11c.01 0 0 0 0-.1l-.17-.39c-.14-.24-.23-.3-.42-.3s-.28.07-.43.3l-.23.36v.1c0 .02 0 0 .1 0H80a.24.24 0 00.24-.14l.14-.24c.05-.06.1-.1.15-.1zm1.91 2.07c0-.8.43-1.26 1.36-1.26a1.48 1.48 0 01.53.08c.15 0 .19.09.19.23v.06c0 .15 0 .2-.19.15a1.38 1.38 0 00-.52-.09c-.68 0-.91.27-.91.84v.59c0 .61.27.83.95.83a1.59 1.59 0 00.55-.08c.14-.05.18 0 .18.15v.06c0 .13 0 .18-.2.22a1.65 1.65 0 01-.56.08c-.94 0-1.38-.4-1.38-1.26z"/><path class="cls-3" d="M83.82 37.08a1.45 1.45 0 01-1-.31 1.22 1.22 0 01-.34-1v-.6a1.23 1.23 0 01.33-.93 1.39 1.39 0 011-.34 1.8 1.8 0 01.54.08c.15 0 .18.1.18.24v.22a.16.16 0 01-.15 0 1.72 1.72 0 00-.52-.08c-.64 0-.91.24-.91.83v.59c0 .6.26.82.95.82a1.46 1.46 0 00.54-.08.19.19 0 01.15 0v.22c0 .14 0 .19-.19.23a2 2 0 01-.58.11zm0-3.12c-.88 0-1.35.43-1.35 1.25v.6c0 .86.43 1.25 1.37 1.25a2 2 0 00.56-.07c.15 0 .19-.09.19-.22v-.21c0-.02-.07 0-.13 0a1.82 1.82 0 01-.55.08c-.69 0-1-.24-1-.84v-.59c0-.6.27-.85.92-.85a1.51 1.51 0 01.53.09h.13c.02 0 0-.07 0-.15v-.06c0-.13 0-.18-.18-.23a1.7 1.7 0 00-.51-.01zm2.77 2.72c0-.15 0-.19.2-.16a3.24 3.24 0 00.89.13c.47 0 .66-.09.66-.35s-.1-.3-.39-.44l-.74-.35c-.39-.19-.57-.37-.57-.79S87 34 87.72 34a2.58 2.58 0 01.76.11c.14 0 .18.09.18.23v.06c0 .15 0 .18-.19.14a2.41 2.41 0 00-.76-.11c-.45 0-.62.09-.62.34s.11.3.32.4l.78.35c.41.2.61.38.61.82s-.37.78-1.15.78a3.12 3.12 0 01-.86-.11c-.16-.05-.2-.1-.2-.23z"/><path class="cls-3" d="M87.65 37.08a3.15 3.15 0 01-.87-.12c-.15 0-.19-.09-.19-.23v-.15c0-.02.08 0 .16 0a3.35 3.35 0 00.89.12c.48 0 .66-.09.66-.34s-.09-.29-.39-.43l-.75-.36c-.37-.18-.57-.36-.57-.79s.35-.78 1.09-.78a2.2 2.2 0 01.76.12c.15 0 .19.09.19.23v.06a.21.21 0 010 .15.21.21 0 01-.16 0 2.23 2.23 0 00-.75-.12c-.44 0-.61.1-.61.34a.43.43 0 00.31.39l.78.36c.4.18.61.37.61.82s-.38.73-1.16.73zm-1-.56h-.06v.14c0 .13 0 .18.19.22a3 3 0 00.86.11c.79 0 1.14-.23 1.14-.77s-.21-.63-.6-.81l-.78-.36a.44.44 0 01-.33-.4c0-.25.18-.35.63-.35a2.33 2.33 0 01.76.12h.14a.18.18 0 000-.14v-.06c0-.14 0-.17-.18-.22a2.29 2.29 0 00-.76-.11c-.73 0-1.07.24-1.07.76s.19.6.56.78l.74.36c.3.14.4.25.4.44s-.18.35-.67.35a3.48 3.48 0 01-.9-.12zm2.73-.73v-.56c0-.85.45-1.28 1.34-1.28s1.33.44 1.33 1.28v.56c0 .86-.44 1.28-1.33 1.28s-1.34-.44-1.34-1.28zm2.21-.56c0-.59-.2-.85-.87-.85s-.88.26-.88.85v.56c0 .59.22.85.88.85s.87-.26.87-.85zm-1.3-2.08c.15-.22.23-.3.43-.3s.29.06.43.3l.24.36c.07.11 0 .14-.08.14a.23.23 0 01-.25-.14l-.14-.24c-.1-.17-.2-.17-.29 0l-.14.24c-.06.12-.12.14-.25.14s-.15 0-.08-.14zm1.55-.36a.27.27 0 01-.26.14h-.06c-.14 0-.16 0-.09-.15l.25-.49a.28.28 0 01.31-.18h.06c.16 0 .19 0 .1.17z"/><path class="cls-3" d="M90.72 37.08c-.91 0-1.34-.41-1.34-1.29v-.56a1.31 1.31 0 01.33-1 1.46 1.46 0 011-.32c.91 0 1.34.41 1.34 1.29v.56c.01.89-.44 1.32-1.33 1.32zm0-3.12a1.41 1.41 0 00-1 .31 1.27 1.27 0 00-.33 1v.56c0 .87.42 1.27 1.33 1.27a1.38 1.38 0 001-.31 1.27 1.27 0 00.33-1v-.56C92 34.36 91.62 34 90.72 34zm0 2.69c-.64 0-.89-.24-.89-.86v-.56c0-.62.24-.86.89-.86s.88.24.88.86v.56c0 .63-.24.86-.88.86zm0-2.26c-.64 0-.87.22-.87.84v.56c0 .61.24.84.87.84s.87-.22.87-.84v-.56c0-.62-.24-.84-.87-.84zm.59-.73a.24.24 0 01-.26-.15l-.14-.23c-.09-.17-.18-.17-.28 0l-.13.23a.24.24 0 01-.26.15h-.12c-.01 0 0-.06 0-.11l.23-.36c.14-.22.23-.3.43-.3s.29.06.44.3l.23.36v.11c0 .02-.07 0-.14 0zm-.59-.52s.1 0 .15.13l.14.24a.24.24 0 00.25.14h.11c.01 0 0 0 0-.1l-.23-.36c-.15-.24-.23-.3-.43-.3s-.28.07-.42.3l-.23.36v.1c0 .02 0 0 .11 0a.25.25 0 00.25-.14l.13-.24c.07-.09.12-.13.17-.13zm.86-.2h-.19a.18.18 0 010-.13l.26-.49a.28.28 0 01.35-.22h.21c.01 0 0 .07 0 .15l-.3.5a.31.31 0 01-.33.19zm.41-.83a.28.28 0 00-.3.18l-.26.49v.12c0 .02 0 0 .12 0h.06a.29.29 0 00.26-.15l.3-.5c0-.07.06-.11 0-.13s-.06 0-.14 0zm1.16 4.71c0 .16 0 .19-.19.19h-.07c-.15 0-.2 0-.2-.19v-1.73c0-.76.43-1.14 1.28-1.14s1.26.4 1.26 1.14v1.73c0 .16 0 .19-.19.19H95c-.17 0-.2 0-.2-.19v-1.73c0-.49-.19-.71-.8-.71s-.82.23-.82.71z"/><path class="cls-3" d="M95 37c-.17 0-.21 0-.21-.2v-1.71c0-.51-.21-.7-.79-.7s-.81.19-.81.7v1.73c0 .16 0 .2-.2.2h-.07c-.15 0-.2 0-.2-.2v-1.73c0-.76.43-1.15 1.28-1.15a1.36 1.36 0 011 .3 1.11 1.11 0 01.3.85v1.73c-.06.18-.09.18-.3.18zm-1-2.63c.59 0 .81.2.81.72v1.73c0 .16 0 .18.19.18.16 0 .19 0 .19-.18v-1.73a1.08 1.08 0 00-.3-.84A1.33 1.33 0 0094 34a1.38 1.38 0 00-1 .28 1.09 1.09 0 00-.32.85v1.73c0 .16 0 .18.19.18H93c.16 0 .19 0 .19-.18v-1.77c-.04-.52.19-.72.81-.72zm4.39.71c0 .7-.41 1.06-1.26 1.06a2.94 2.94 0 00-.64 0 .18.18 0 00-.15.19c0 .08 0 .14.16.17a4.07 4.07 0 00.63 0 2 2 0 011 .19.7.7 0 01.3.65.82.82 0 01-.3.72 1.86 1.86 0 01-1 .21 1.92 1.92 0 01-1-.21.73.73 0 01-.29-.64.71.71 0 01.35-.65.4.4 0 01-.25-.4c0-.27.16-.43.49-.48a.85.85 0 01-.51-.88V35c0-.66.47-1 1.26-1a1.54 1.54 0 01.63.12l.35-.31c.1-.09.15-.09.25 0s.1.14 0 .24l-.27.28a.91.91 0 01.26.68zm-1.85 1.86a.53.53 0 00-.29.5c0 .4.23.5.88.5s.88-.1.88-.51-.22-.45-.88-.45a4 4 0 01-.59-.04zM97.93 35c0-.43-.27-.64-.8-.64s-.81.21-.81.64v.08c0 .43.2.65.81.65s.8-.22.8-.65z"/><path class="cls-3" d="M97.13 38.34a1.89 1.89 0 01-1-.2.76.76 0 01-.29-.65.72.72 0 01.33-.65.41.41 0 01-.24-.4q0-.4.48-.48a.86.86 0 01-.5-.88V35a1 1 0 01.34-.78 1.45 1.45 0 01.93-.28 1.54 1.54 0 01.63.12l.35-.3c.1-.1.15-.1.25 0 .06.05.08.08.08.12s0 .07-.08.13l-.27.27a.88.88 0 01.27.68v.08c0 .7-.43 1.06-1.27 1.06a2.81 2.81 0 00-.64 0 .18.18 0 00-.14.18c0 .08.05.13.15.16a3.66 3.66 0 00.63 0 2 2 0 011.05.19.68.68 0 01.29.65.8.8 0 01-.3.73 2 2 0 01-1.05.33zm0-4.38c-.78 0-1.25.39-1.25 1v.08a.86.86 0 00.5.88c-.33.05-.49.2-.49.47a.43.43 0 00.25.4.7.7 0 00-.34.64.76.76 0 00.28.64 2 2 0 001 .2 1.9 1.9 0 001-.2.82.82 0 00.3-.72.68.68 0 00-.29-.64 2 2 0 00-1-.19 3 3 0 01-.64 0 .18.18 0 01-.15-.17.18.18 0 01.15-.19 2.74 2.74 0 01.64 0 1.49 1.49 0 001-.26 1 1 0 00.31-.79V35a.85.85 0 00-.27-.67l.27-.28c.06 0 .08-.09.08-.12a.16.16 0 00-.07-.11h-.05c-.09-.09-.14-.09-.24 0l-.35.31a1.54 1.54 0 00-.64-.13zm0 4c-.68 0-.88-.12-.88-.51a.49.49 0 01.29-.5 4.68 4.68 0 00.59 0c.66 0 .89.07.89.46s-.22.59-.89.59zm-.59-1a.5.5 0 00-.28.49c0 .38.2.5.87.5s.87-.12.87-.51-.21-.45-.87-.45a4.68 4.68 0 01-.59.01zm.59-1.21c-.58 0-.81-.19-.81-.66V35c0-.44.26-.65.81-.65s.81.22.81.65v.08c0 .47-.23.66-.81.66zm0-1.38c-.54 0-.8.21-.8.64v.08c0 .46.23.65.8.65s.8-.19.8-.65V35c0-.42-.27-.64-.8-.64zm6.64-.87c0 .13 0 .17-.17.17h-.36v2.13c0 .85-.45 1.27-1.34 1.27s-1.33-.42-1.33-1.27v-.57a1.12 1.12 0 011.26-1.23 1 1 0 011 .44v-.72H102c-.14 0-.17 0-.17-.17 0-.13 0-.17.17-.17h.83V33c0-.17 0-.2.19-.2H103c.15 0 .2 0 .2.2v.33h.36c.13 0 .17 0 .17.17zM101 35.79c0 .59.2.85.87.85s.88-.26.88-.85v-.56c0-.59-.21-.85-.88-.85s-.87.26-.87.85z"/><path class="cls-3" d="M101.9 37.08a1.41 1.41 0 01-1-.32 1.27 1.27 0 01-.33-1v-.57a1.31 1.31 0 01.32-1 1.26 1.26 0 011-.33 1 1 0 01.94.43v-.69H102c-.14 0-.18 0-.18-.18 0-.14 0-.18.18-.18h.82V33c0-.17 0-.21.2-.21H103c.15 0 .2 0 .2.21v.32h.36c.13 0 .18 0 .18.18 0 .13 0 .18-.18.18h-.36v2.12c.04.85-.41 1.28-1.3 1.28zm-.07-3.08a1.27 1.27 0 00-.94.31 1.34 1.34 0 00-.31 1v.57a1.24 1.24 0 00.32 1 1.38 1.38 0 001 .31 1.41 1.41 0 001-.31 1.26 1.26 0 00.33-1v-2.22h.37c.12 0 .17 0 .17-.16 0-.12 0-.16-.17-.16h-.37V33c0-.17 0-.19-.19-.19H103c-.16 0-.18 0-.18.19v.34H102c-.14 0-.16 0-.16.16 0 .12 0 .16.16.16h.84v.76a1 1 0 00-1.01-.42zm.07 2.69c-.64 0-.88-.23-.88-.86v-.56c0-.62.25-.86.88-.86s.89.24.89.86v.56c0 .58-.25.82-.89.82zm0-2.26c-.62 0-.87.23-.87.84v.56c0 .62.24.84.87.84s.87-.22.87-.84v-.56c0-.66-.23-.88-.87-.88zm1.95 1.36v-.56c0-.85.44-1.28 1.34-1.28.67 0 1.06.23 1.23.66.09 0 .18-.16.18-.48 0-.09 0-.12.14-.12h.1c.11 0 .13 0 .13.12 0 .49-.19.73-.48.81a1.32 1.32 0 010 .29v.56c0 .86-.44 1.28-1.32 1.28s-1.32-.44-1.32-1.28zm2.21-.56c0-.59-.21-.85-.87-.85s-.89.26-.89.85v.56c0 .59.23.85.89.85s.87-.26.87-.85z"/><path class="cls-3" d="M105.19 37.08c-.92 0-1.35-.41-1.35-1.29v-.56a1.31 1.31 0 01.34-1 1.42 1.42 0 011-.32c.66 0 1 .21 1.23.66.12-.05.17-.21.17-.47 0-.1 0-.13.15-.13h.1c.11 0 .14 0 .14.13 0 .44-.16.72-.48.82a2.46 2.46 0 010 .28v.56a1.16 1.16 0 01-1.3 1.32zm0-3.12a1.39 1.39 0 00-1 .31 1.27 1.27 0 00-.33 1v.56c0 .87.42 1.27 1.33 1.27a1.4 1.4 0 001-.31 1.27 1.27 0 00.33-1v-.56a2.48 2.48 0 000-.29q.48-.15.48-.81c0-.09 0-.11-.13-.11h-.1c-.1 0-.13 0-.13.11 0 .27-.06.43-.19.49-.22-.45-.6-.62-1.26-.62zm0 2.69c-.64 0-.89-.24-.89-.86v-.56c0-.62.24-.86.89-.86s.87.24.87.86v.56c0 .63-.23.86-.87.86zm0-2.26c-.64 0-.88.22-.88.84v.56c0 .61.25.84.88.84s.86-.22.86-.84v-.56c0-.62-.23-.84-.86-.84zm2.43 2.43c0 .16 0 .19-.2.19h-.07c-.15 0-.19 0-.19-.19v-1.73c0-.76.43-1.14 1.27-1.14s1.27.4 1.27 1.14v1.73c0 .16 0 .19-.2.19h-.07c-.17 0-.2 0-.2-.19v-1.73c0-.49-.18-.71-.8-.71s-.81.23-.81.71z"/><path class="cls-3" d="M109.5 37h-.07c-.17 0-.2 0-.2-.2v-1.71c0-.51-.22-.7-.8-.7s-.81.19-.81.7v1.73c0 .16 0 .2-.2.2h-.07c-.15 0-.2 0-.2-.2v-1.73c0-.76.43-1.15 1.28-1.15a1.36 1.36 0 011 .3 1.08 1.08 0 01.3.85v1.73c-.03.18-.06.18-.23.18zm-1.07-2.65c.59 0 .81.2.81.72v1.73c0 .16 0 .18.19.18h.07c.16 0 .19 0 .19-.18v-1.71a1.11 1.11 0 00-.29-.84 1.36 1.36 0 00-1-.29 1.38 1.38 0 00-1 .28 1.09 1.09 0 00-.32.85v1.73c0 .16 0 .18.19.18h.07c.16 0 .19 0 .19-.18v-1.73c.08-.52.31-.72.9-.72zm6.05.73c0 .7-.41 1.06-1.25 1.06a3 3 0 00-.65 0 .18.18 0 00-.15.19c0 .08 0 .14.16.17a4.14 4.14 0 00.64 0 2 2 0 011 .19.71.71 0 01.29.65.82.82 0 01-.3.72 1.84 1.84 0 01-1 .21 1.94 1.94 0 01-1.06-.21.75.75 0 01-.28-.64.71.71 0 01.34-.65.4.4 0 01-.25-.4c0-.27.16-.43.49-.48a.85.85 0 01-.51-.88V35c0-.66.47-1 1.27-1a1.52 1.52 0 01.62.12l.35-.31c.1-.09.15-.09.25 0s.1.14 0 .24l-.27.28a.91.91 0 01.26.68zm-1.85 1.86a.53.53 0 00-.29.5c0 .4.23.5.89.5s.87-.1.87-.51-.22-.45-.87-.45a4 4 0 01-.6-.04zM114 35c0-.43-.26-.64-.79-.64s-.81.21-.81.64v.08c0 .43.19.65.81.65s.79-.22.79-.65z"/><path class="cls-3" d="M113.23 38.34a1.93 1.93 0 01-1.06-.2.76.76 0 01-.29-.65.71.71 0 01.34-.65.4.4 0 01-.25-.4q0-.4.48-.48a.86.86 0 01-.5-.88V35a1 1 0 01.34-.78 1.46 1.46 0 01.94-.28 1.52 1.52 0 01.62.12l.35-.3c.1-.1.15-.1.25 0 .06.05.08.08.08.12s0 .07-.08.13l-.26.27a.91.91 0 01.26.68v.08c0 .7-.43 1.06-1.26 1.06a2.85 2.85 0 00-.65 0 .18.18 0 00-.14.18c0 .08 0 .13.15.16a3.72 3.72 0 00.64 0 2 2 0 011 .19.69.69 0 01.3.65.81.81 0 01-.31.73 2 2 0 01-.95.33zm0-4.38c-.79 0-1.26.39-1.26 1v.08a.86.86 0 00.5.88c-.33.05-.48.2-.48.47a.42.42 0 00.24.4.7.7 0 00-.34.64.74.74 0 00.29.64 2.8 2.8 0 002.08 0 .81.81 0 00.29-.72.68.68 0 00-.29-.64 1.92 1.92 0 00-1-.19 2.88 2.88 0 01-.64 0c-.11 0-.16-.09-.16-.17a.18.18 0 01.15-.19 2.79 2.79 0 01.65 0 1.48 1.48 0 00.94-.26 1 1 0 00.31-.79V35a.85.85 0 00-.27-.67l.28-.28a.19.19 0 00.07-.12.16.16 0 00-.07-.11c-.1-.1-.14-.09-.25 0l-.35.31a1.52 1.52 0 00-.69-.13zm0 4c-.69 0-.89-.12-.89-.51a.49.49 0 01.29-.5 4.75 4.75 0 00.6 0c.65 0 .88.07.88.46s-.3.59-.88.59zm-.6-1a.5.5 0 00-.28.49c0 .38.2.5.88.5s.86-.12.86-.51-.21-.45-.86-.45a4.75 4.75 0 01-.6.01zm.6-1.21c-.58 0-.82-.19-.82-.66V35c0-.44.27-.65.82-.65s.8.22.8.65v.08c-.03.47-.23.66-.8.66zm0-1.38c-.55 0-.81.21-.81.64v.08c0 .46.23.65.81.65s.79-.19.79-.65V35c-.02-.42-.27-.64-.79-.64zm2.47-1.3a.29.29 0 01-.29.3.3.3 0 01-.31-.3.31.31 0 01.31-.3.3.3 0 01.29.3zm-.52 1.13c0-.15 0-.19.19-.19h.07c.15 0 .19 0 .19.19v2.62c0 .16 0 .19-.19.19h-.07c-.17 0-.19 0-.19-.19z"/><path class="cls-3" d="M115.44 37h-.07c-.17 0-.2 0-.2-.2v-2.6c0-.15 0-.2.2-.2h.07c.15 0 .2 0 .2.2v2.62c0 .18-.05.18-.2.18zm-.07-3c-.16 0-.19 0-.19.18v2.62c0 .16 0 .18.19.18h.07c.14 0 .18 0 .18-.18v-2.6c0-.14 0-.18-.18-.18zm0-.65a.3.3 0 110-.6.3.3 0 110 .6zm0-.59a.29.29 0 100 .58.29.29 0 000-.58zm3.33 3.35c0 .68-.39 1-1.27 1-.7 0-1.14-.28-1.14-.91s.41-.89 1.24-.89h.72v-.41c0-.41-.29-.55-.8-.55a3.06 3.06 0 00-.67.07c-.15 0-.2 0-.2-.15v-.05c0-.14 0-.18.19-.21a3.37 3.37 0 01.66-.06c.85 0 1.27.32 1.27.95zm-.45-.48h-.72c-.54 0-.79.15-.79.53s.23.52.69.52.82-.13.82-.59zm-.72-2c-.11 0-.12 0-.14-.12s.09-.24.27-.43a.23.23 0 00.08-.14c0-.11 0-.16-.11-.16a.58.58 0 00-.27 0c-.07 0-.12 0-.16-.06v-.05c0-.09 0-.13.09-.16a.85.85 0 01.36-.07.4.4 0 01.43.45c0 .26-.36.37-.37.57a.14.14 0 01-.12.12z"/><path class="cls-3" d="M117.43 37.08c-.75 0-1.15-.32-1.15-.92s.38-.9 1.25-.9h.71v-.36c0-.38-.24-.54-.79-.54a3.26 3.26 0 00-.67.06h-.16c-.03 0 0-.07 0-.14v-.05c0-.14 0-.18.19-.22a3.23 3.23 0 01.66-.06c.85 0 1.28.33 1.28 1v1.21c-.04.62-.44.92-1.32.92zm.1-1.8c-.86 0-1.24.27-1.24.88s.39.9 1.14.9a1.62 1.62 0 001-.22.83.83 0 00.31-.73V34.9a.84.84 0 00-.32-.71 1.64 1.64 0 00-.95-.23 3.23 3.23 0 00-.66.06c-.15 0-.18.06-.18.2v.18c0 .02.07 0 .15 0a3.13 3.13 0 01.67-.07c.56 0 .8.17.8.56v.38zm-.1 1.4c-.47 0-.69-.17-.69-.52s.24-.54.79-.54h.72v.47c0 .49-.31.59-.82.59zm.1-1c-.55 0-.78.15-.78.52s.22.51.68.51.81-.16.81-.58v-.45zm0-2c-.12 0-.13 0-.15-.12s.06-.22.19-.36l.09-.09a.19.19 0 00.07-.13c0-.11 0-.15-.1-.16a.53.53 0 00-.23.06c-.08 0-.13 0-.18-.07v-.05c0-.1 0-.13.09-.16a.85.85 0 01.36-.07.48.48 0 01.32.11.45.45 0 01.11.34.51.51 0 01-.2.34.4.4 0 00-.17.23.13.13 0 01-.12.12zm.07-.87c.06 0 .12 0 .12.17a.23.23 0 01-.08.14l-.09.09c-.13.13-.2.2-.19.34s0 .11.14.11a.13.13 0 00.11-.11.42.42 0 01.17-.24.47.47 0 00.22-.31.44.44 0 00-.11-.33.43.43 0 00-.31-.11.85.85 0 00-.36.07c-.07 0-.11.06-.08.15 0 .09.09.09.16.07a.53.53 0 01.3-.04zm2.21 4.01c0 .16 0 .19-.2.19h-.07c-.15 0-.19 0-.19-.19v-1.73c0-.76.43-1.14 1.27-1.14s1.27.4 1.27 1.14v1.73c0 .16 0 .19-.2.19h-.07c-.17 0-.2 0-.2-.19v-1.73c0-.49-.18-.71-.8-.71s-.81.23-.81.71z"/><path class="cls-3" d="M121.69 37h-.07c-.17 0-.2 0-.2-.2v-1.71c0-.51-.22-.7-.8-.7s-.81.19-.81.7v1.73c0 .16 0 .2-.2.2h-.07c-.15 0-.2 0-.2-.2v-1.73c0-.76.43-1.15 1.28-1.15a1.36 1.36 0 011 .3 1.08 1.08 0 01.3.85v1.73c-.03.18-.06.18-.23.18zm-1.07-2.65c.59 0 .81.2.81.72v1.73c0 .16 0 .18.19.18h.07c.16 0 .19 0 .19-.18v-1.71a1.11 1.11 0 00-.29-.84 1.36 1.36 0 00-1-.29 1.38 1.38 0 00-1 .28 1.09 1.09 0 00-.32.85v1.73c0 .16.05.18.19.18h.07c.16 0 .19 0 .19-.18v-1.73c.08-.52.28-.72.9-.72zm3.66-1.35c0-.17 0-.2.2-.2h.07c.16 0 .19 0 .19.2v1.41a1.07 1.07 0 011-.41c.74 0 1.12.35 1.12 1.07v1.8c0 .16 0 .19-.19.19h-.08c-.16 0-.19 0-.19-.19v-1.8c0-.48-.22-.69-.78-.69s-.84.23-.84.79v1.65c0 .16 0 .19-.19.19h-.07c-.16 0-.2 0-.2-.19z"/><path class="cls-3" d="M126.63 37h-.08c-.16 0-.2 0-.2-.2v-1.73c0-.49-.22-.68-.77-.68s-.83.23-.83.78v1.65c0 .16 0 .2-.2.2h-.07c-.15 0-.2 0-.2-.2V33c0-.18 0-.21.2-.21h.07c.16 0 .2 0 .2.21v1.39a1.08 1.08 0 011-.4c.75 0 1.13.36 1.13 1.08v1.8c-.05.13-.09.13-.25.13zm-1-2.65c.56 0 .79.21.79.7v1.75c0 .16 0 .18.18.18h.08c.16 0 .18 0 .18-.18V35c0-.71-.37-1.06-1.11-1.06a1.07 1.07 0 00-1 .41V33c0-.16 0-.19-.18-.19h-.07c-.15 0-.19 0-.19.19v3.87c0 .16 0 .18.19.18h.07c.15 0 .18 0 .18-.18v-1.7c-.02-.56.25-.8.83-.8zm1.84 1.44v-.56c0-.85.44-1.28 1.34-1.28a1.17 1.17 0 011.23.66c.09 0 .18-.16.18-.48 0-.09 0-.12.14-.12h.1c.11 0 .13 0 .13.12 0 .49-.2.73-.48.81a1.32 1.32 0 010 .29v.56c0 .86-.44 1.28-1.32 1.28s-1.32-.44-1.32-1.28zm2.21-.56c0-.59-.21-.85-.87-.85s-.89.26-.89.85v.56c0 .59.22.85.89.85s.87-.26.87-.85z"/><path class="cls-3" d="M128.81 37.08c-.92 0-1.35-.41-1.35-1.29v-.56a1.31 1.31 0 01.34-1 1.42 1.42 0 011-.32c.66 0 1.05.21 1.23.66.12-.05.17-.21.17-.47 0-.1 0-.13.15-.13h.1c.11 0 .14 0 .14.13 0 .44-.16.72-.48.82a2.46 2.46 0 010 .28v.56a1.16 1.16 0 01-1.3 1.32zm0-3.12a1.39 1.39 0 00-1 .31 1.27 1.27 0 00-.33 1v.56c0 .87.42 1.27 1.33 1.27a1.4 1.4 0 001-.31 1.27 1.27 0 00.33-1v-.56a2.64 2.64 0 000-.29c.32-.1.47-.37.47-.81 0-.09 0-.11-.12-.11h-.1c-.1 0-.13 0-.13.11 0 .27-.06.43-.19.49-.22-.45-.6-.62-1.26-.62zm0 2.69c-.64 0-.89-.24-.89-.86v-.56c0-.62.24-.86.89-.86s.87.24.87.86v.56c0 .63-.23.86-.87.86zm0-2.26c-.64 0-.88.22-.88.84v.56c0 .61.25.84.88.84s.86-.22.86-.84v-.56c0-.62-.23-.84-.86-.84zm2.43 2.43c0 .16 0 .19-.2.19H131c-.15 0-.19 0-.19-.19v-1.73c0-.76.42-1.14 1.27-1.14s1.27.4 1.27 1.14v1.73c0 .16 0 .19-.2.19h-.07c-.17 0-.2 0-.2-.19v-1.73c0-.49-.18-.71-.8-.71s-.81.23-.81.71z"/><path class="cls-3" d="M133.12 37h-.07c-.17 0-.2 0-.2-.2v-1.71c0-.51-.22-.7-.8-.7s-.81.19-.81.7v1.73c0 .16 0 .2-.2.2H131c-.15 0-.2 0-.2-.2v-1.73c0-.76.43-1.15 1.28-1.15a1.36 1.36 0 011 .3 1.08 1.08 0 01.3.85v1.73c-.06.18-.09.18-.26.18zm-1.07-2.65c.59 0 .81.2.81.72v1.73c0 .16 0 .18.19.18h.07c.16 0 .19 0 .19-.18v-1.71a1.11 1.11 0 00-.29-.84 1.36 1.36 0 00-1-.29 1.38 1.38 0 00-1 .28 1.09 1.09 0 00-.32.85v1.73c0 .16.05.18.19.18h.11c.16 0 .19 0 .19-.18v-1.73c.04-.52.27-.72.86-.72z"/></svg>